<svg width="24" height="24" viewBox="0 0 24 24" fill="none" xmlns="http://www.w3.org/2000/svg">
<mask id="mask0_484_8" style="mask-type:alpha" maskUnits="userSpaceOnUse" x="5" y="5" width="14" height="14">
<path fill-rule="evenodd" clip-rule="evenodd" d="M6.52104 5.63604C6.20152 5.31652 5.68348 5.31652 5.36396 5.63604C5.04444 5.95556 5.04444 6.4736 5.36396 6.79312L10.5708 12L5.36396 17.2069C5.04444 17.5264 5.04444 18.0444 5.36396 18.364C5.68348 18.6835 6.20152 18.6835 6.52104 18.364L11.7279 13.1571L16.9348 18.364C17.2543 18.6835 17.7724 18.6835 18.0919 18.364C18.4114 18.0444 18.4114 17.5264 18.0919 17.2069L12.885 12L18.0919 6.79312C18.4114 6.4736 18.4114 5.95556 18.0919 5.63604C17.7724 5.31652 17.2543 5.31652 16.9348 5.63604L11.7279 10.8429L6.52104 5.63604Z" fill="white"/>
</mask>
<g mask="url(#mask0_484_8)">
<rect width="24" height="24" fill="#081623"/>
</g>
</svg>
